<?xml version="1.0" standalone="no"?>
<!DOCTYPE svg PUBLIC "-//W3C//DTD SVG 20010904//EN"
 "http://www.w3.org/TR/2001/REC-SVG-20010904/DTD/svg10.dtd">
<svg version="1.0" xmlns="http://www.w3.org/2000/svg"
 width="225.000000pt" height="225.000000pt" viewBox="0 0 225.000000 225.000000"
 preserveAspectRatio="xMidYMid meet">

<g transform="translate(0.000000,225.000000) scale(0.100000,-0.100000)"
fill="#000000" stroke="none">
<path d="M1045 2224 c-294 -40 -460 -108 -647 -267 -147 -125 -291 -356 -337
-542 -92 -368 -9 -733 232 -1017 317 -372 887 -480 1337 -253 393 199 631 630
590 1071 -42 445 -313 799 -727 947 -121 44 -348 75 -448 61z m224 -476 c198
-101 229 -360 61 -511 -67 -61 -129 -81 -229 -75 -87 5 -123 21 -188 81 -148
136 -133 374 31 486 101 69 214 76 325 19z m76 -777 c153 -43 285 -121 402
-233 81 -79 98 -111 88 -164 -13 -72 -207 -226 -372 -294 -292 -122 -637 -77
-889 116 -140 106 -183 175 -154 244 19 45 166 178 258 233 85 52 212 100 302
116 85 15 283 6 365 -18z"/>
</g>
</svg>
